<?xml version="1.0" standalone="no"?>
<!DOCTYPE svg PUBLIC "-//W3C//DTD SVG 20010904//EN"
 "http://www.w3.org/TR/2001/REC-SVG-20010904/DTD/svg10.dtd">
<svg version="1.0" xmlns="http://www.w3.org/2000/svg"
 width="54.000000pt" height="54.000000pt" viewBox="0 0 54.000000 54.000000"
 preserveAspectRatio="xMidYMid meet">
<metadata>
Created by potrace 1.12, written by Peter Selinger 2001-2015
</metadata>
<g transform="translate(0.000000,54.000000) scale(0.100000,-0.100000)"
fill="#000000" stroke="none">
<path d="M153 512 l-153 -3 0 -189 c0 -105 3 -189 8 -188 10 3 85 -23 97 -33
12 -12 10 -11 -52 5 l-53 14 0 -28 c0 -16 6 -31 13 -34 9 -5 9 -7 0 -12 -7 -3
-13 -14 -13 -25 0 -16 7 -19 45 -19 33 0 45 4 45 15 0 8 -6 15 -12 16 -7 0 0
5 15 9 16 5 36 6 45 3 11 -3 13 -2 6 4 -14 11 -24 52 -14 58 10 6 32 -54 24
-66 -3 -5 -12 -9 -20 -9 -8 0 -14 -5 -14 -11 0 -6 7 -9 15 -5 8 3 15 1 15 -4
0 -6 29 -10 65 -10 49 0 67 4 71 15 8 21 32 19 37 -3 4 -14 5 -14 6 3 0 11 17
38 36 60 19 22 35 45 35 52 0 6 7 19 16 28 25 24 10 45 -33 46 -31 1 -34 2
-14 8 25 7 42 31 22 31 -6 0 -11 7 -11 15 0 15 -37 35 -64 35 -8 0 -17 -10
-20 -22 l-7 -23 -10 24 c-7 18 -6 26 7 35 23 17 14 50 -14 54 -34 5 -55 -17
-48 -50 3 -15 1 -28 -4 -28 -6 0 -10 12 -9 28 0 28 16 113 18 98 0 -5 8 -3 16
4 11 9 12 16 5 25 -8 9 -6 14 5 19 9 3 13 10 10 16 -4 7 43 10 134 10 136 0
141 1 141 21 0 20 -4 20 -117 17 -65 -2 -187 -4 -270 -6z"/>
</g>
</svg>
